Coordinates
version=1
nRows=16
nColumns=36
inDegrees=yes

Units are S.I. units (second, meters, Newtons, ...)
If the header above contains a line with 'inDegrees', this indicates whether rotational values are in degrees (yes) or radians (no).

endheader
time	pelvis_tilt	pelvis_list	pelvis_rotation	pelvis_tx	pelvis_ty	pelvis_tz	hip_flexion_r	hip_adduction_r	hip_rotation_r	knee_angle_r	knee_angle_r_beta	ankle_angle_r	subtalar_angle_r	mtp_angle_r	hip_flexion_l	hip_adduction_l	hip_rotation_l	knee_angle_l	knee_angle_l_beta	ankle_angle_l	subtalar_angle_l	mtp_angle_l	lumbar_extension	lumbar_bending	lumbar_rotation	arm_flex_r	arm_add_r	arm_rot_r	elbow_flex_r	pro_sup_r	arm_flex_l	arm_add_l	arm_rot_l	elbow_flex_l	pro_sup_l
      3.68333330	     -2.81253098	     -2.08261590	     -2.17695371	     -0.15388305	      0.90310123	     -0.08214768	     50.70843376	      0.40402692	     -2.66230474	      3.72670964	      0.06504335	      5.75163821	     -1.14195954	     -7.49999987	     44.85559940	      6.74299013	      0.12465957	     68.06860479	      1.18802127	     39.91900978	    -24.73973666	     -7.49999987	    -21.63258609	      3.08890756	      4.55770687	     45.18889209	      6.24808579	     65.43262119	    121.19345759	     89.34169410	     57.96432372	      2.77174506	     69.33366472	    125.25078084	     67.00882193
      3.70000000	     -2.67533835	     -1.97469481	     -2.13580949	     -0.15312210	      0.89963888	     -0.08210501	     50.57295044	      0.16350142	     -2.60945410	      3.41238974	      0.05955744	      6.09539485	     -0.83579489	     -7.49999987	     45.15093295	      7.00357468	      0.20612139	     68.81876637	      1.20111406	     39.90086588	    -25.83287287	     -7.49999987	    -21.96257638	      2.89937798	      4.41032645	     45.42406610	      6.44816123	     65.67256891	    121.23251180	     93.07894124	     57.90723453	      2.67464943	     69.23647468	    125.31702839	     69.49329188
      3.71666670	     -2.95293115	     -1.79424108	     -1.87235655	     -0.15684922	      0.89530690	     -0.08280911	     50.99364426	     -0.30390976	     -2.28466108	      3.02459509	      0.05278914	      5.78323772	     -0.46768728	     -7.49999987	     45.99731638	      7.54859256	      0.52689247	     68.95583133	      1.20350630	     40.65686034	    -25.65985969	     -7.49999987	    -22.11481873	      2.61559419	      4.32275053	     45.87716914	      6.49185397	     66.07300061	    121.40927123	     91.88194444	     58.31141218	      2.82895185	     69.66316313	    125.44506052	     69.05221006
      3.73333330	     -2.94137958	     -1.42752295	     -1.27772082	     -0.15809618	      0.89018602	     -0.08352430	     51.21894969	     -1.03414192	     -2.42794234	      2.46753223	      0.04306656	      6.20661547	      0.60601850	     -7.49999987	     46.87193079	      8.51621159	      1.04584202	     69.58739164	      1.21452910	     41.52280424	    -25.17524744	     -7.49999987	    -22.64516670	      2.19111768	      4.68843217	     46.17815337	      6.33413985	     66.13642874	    121.69937896	     92.08387393	     59.24824383	      3.45544696	     70.61483951	    125.28974927	     69.16860863
      3.75000000	     -3.12088234	     -1.16198260	     -1.02532966	     -0.15734943	      0.88557516	     -0.08360285	     51.73656990	     -1.49569054	     -1.92254540	      2.45819864	      0.04290366	      5.94350506	      0.49046122	     -7.49999987	     47.49332645	      9.14294410	      1.23922966	     70.50840488	      1.23060382	     42.20124177	    -25.65382589	     -7.49999987	    -22.71901452	      2.05486961	      4.77718499	     46.45633612	      6.47976748	     66.33825627	    121.32685755	     90.02363382	     59.76076995	      3.49664838	     70.72499119	    125.24377268	     68.31282811
      3.76666670	     -3.08678299	     -0.99108316	     -0.92501965	     -0.15607840	      0.88217078	     -0.08386618	     51.92306987	     -1.74515671	     -1.34796960	      2.33974146	      0.04083619	      5.11437713	     -0.13192581	     -7.49999987	     47.74480050	      9.54157151	      1.30766110	     71.15414134	      1.24187404	     41.82152659	    -26.03846030	     -7.49999987	    -23.25480109	      1.89658014	      5.23203729	     46.81103963	      6.42016372	     66.49859329	    121.44041207	     93.49381640	     60.62905252	      3.74287233	     71.39313627	    125.16594800	     69.46204781
      3.78333330	     -3.37987041	     -1.09627746	     -0.78530792	     -0.15547324	      0.87746709	     -0.08393244	     52.39742853	     -1.87940800	     -1.30614220	      2.51120075	      0.04382872	      4.99975855	     -0.04434152	     -7.49999987	     48.73798438	      9.75815740	      1.67222269	     72.10803376	      1.25852261	     41.73617598	    -26.44362077	     -7.49999987	    -23.25702305	      1.96587293	      5.83077527	     46.62817981	      6.27239039	     66.49379113	    121.59327663	     94.98897454	     61.03852365	      4.09668138	     71.90965143	    125.02103770	     69.75668080
      3.80000000	     -3.31766315	     -1.08947599	     -1.03375551	     -0.15546307	      0.87503625	     -0.08436974	     52.37036703	     -1.80250990	     -1.66657600	      2.43058834	      0.04242177	      4.74726861	     -0.20584896	     -7.49999987	     48.97189161	      9.90835747	      1.67592406	     73.18781961	      1.27736842	     40.58527184	    -27.19529092	     -7.49999987	    -23.57551711	      1.97465774	      6.29984773	     46.70186861	      6.38031584	     66.83418984	    121.49373464	     90.88793701	     61.36093307	      4.03071793	     72.04456463	    125.18950503	     68.53355266
      3.81666670	     -3.17121464	     -1.10922345	     -1.08155383	     -0.15459961	      0.87203548	     -0.08498609	     52.44972775	     -1.86410233	     -1.83204116	      2.56191441	      0.04471384	      4.50521904	      0.12438458	     -7.49999987	     49.11362774	     10.05880436	      1.52437442	     74.34602353	      1.29758290	     39.51136593	    -27.77785596	     -7.49999987	    -23.80132713	      1.88405867	      6.82016835	     46.18195079	      6.30510670	     66.28897335	    121.68275193	     95.21304800	     61.70716934	      4.30840295	     72.34529318	    125.04821253	     69.27663550
      3.83333330	     -3.03556953	     -0.96576170	     -0.98896525	     -0.15382781	      0.86957641	     -0.08455691	     52.40714645	     -2.12207332	     -2.11204991	      2.32564331	      0.04059013	      4.40545287	     -0.03366670	     -7.49999987	     49.00719149	     10.40092304	      1.41492754	     75.04833022	      1.30984046	     38.98974321	    -27.83845902	     -7.49999987	    -23.88180758	      1.72837267	      6.95029748	     46.05131682	      6.42234158	     66.29297183	    121.70245686	     93.36641323	     61.85457632	      4.25962865	     72.51288700	    125.28730916	     68.59857987
      3.85000000	     -2.97343528	     -0.64758420	     -1.04321335	     -0.15508261	      0.86612336	     -0.08413060	     52.39965578	     -2.40352384	     -2.69477072	      2.03170202	      0.03545989	      4.90038328	      0.37142483	     -7.49999987	     49.54256779	     10.72668007	      1.25065003	     75.25948265	      1.31352577	     37.37559540	    -28.57335306	     -7.49999987	    -23.99727541	      1.13270581	      7.32407392	     46.23319549	      6.39272712	     65.96331370	    121.91807807	     95.15140250	     62.46103584	      4.48351084	     72.89190965	    125.07529663	     68.85198472
      3.86666670	     -2.97988966	     -0.25122481	     -0.95917335	     -0.15222228	      0.86518127	     -0.08505970	     52.23330466	     -2.78402243	     -3.88546452	      1.32971631	      0.02320793	      5.49665468	      1.44673944	     -7.49999987	     49.73077064	     11.22022173	      1.08054388	     75.60338836	      1.31952805	     36.23815617	    -29.13448347	     -7.49999987	    -23.89976352	      0.70363363	      7.57094936	     46.32732233	      6.42664770	     65.96763995	    121.81748723	     94.99502962	     62.58275128	      4.61460491	     73.19317030	    125.21757231	     68.71343194
      3.88333330	     -2.99248333	      0.19336862	     -0.98690656	     -0.15395533	      0.86371170	     -0.08572219	     52.26874722	     -3.15028744	     -4.89630421	      0.92134968	      0.01608059	      6.08110595	      1.76195028	     -7.49999987	     49.99945487	     11.70386882	      0.86178669	     75.74954197	      1.32207891	     35.75756558	    -29.07570469	     -7.49999987	    -23.98673400	      0.27120182	      7.62801042	     46.49987301	      6.53616319	     66.23433034	    121.78751319	     91.87438256	     62.98226384	      4.65951415	     73.50448991	    125.42430291	     68.01832759
      3.90000000	     -3.07391103	      0.50045783	     -1.02415489	     -0.15369201	      0.86254121	     -0.08563714	     52.43220673	     -3.37796704	     -5.90483346	      0.72218289	      0.01260447	      6.64269481	      2.10997150	     -7.49999987	     50.15041467	     11.97844073	      0.97368971	     75.53820192	      1.31839033	     36.36904851	    -28.28760049	     -7.49999987	    -23.99910360	     -0.03995229	      7.82848479	     46.73415906	      6.51641171	     66.60485435	    121.84642639	     87.75354118	     63.28403917	      4.75840975	     73.80018182	    125.65632217	     66.74795527
      3.91666670	     -3.11745184	      0.71559891	     -0.78474434	     -0.15110741	      0.86278318	     -0.08631751	     52.64533516	     -3.75616377	     -6.85407408	      0.60749544	      0.01060280	      6.79299493	      2.07440991	     -7.49999987	     49.99470254	     12.43163834	      1.06214532	     75.25935911	      1.31352361	     35.03433579	    -28.49295517	     -7.49999987	    -24.03249133	     -0.27377214	      7.64360282	     46.70614005	      6.57415285	     65.79989072	    121.64888395	     94.77355295	     63.26070080	      4.54100885	     73.47473243	    125.53156121	     68.03563805
      3.93333330	     -3.58506977	      0.89016520	     -0.58592591	     -0.15343292	      0.86221797	     -0.08600995	     52.77308365	     -4.02081364	     -6.54398016	      0.53652420	      0.00936411	      6.80386742	      1.71183933	     -7.49999987	     47.99224952	     12.80770237	      1.57640129	     74.92782114	      1.30773718	     43.22942048	    -22.97988892	     -7.49999987	    -23.64771688	     -0.37635707	      7.64900575	     46.75666680	      6.38997155	     66.60274551	    121.77944336	     92.65358100	     63.30663781	      4.63465508	     73.93965605	    125.61451271	     67.68755848
